<?xml version="1.0" standalone="no"?>
<!DOCTYPE svg PUBLIC "-//W3C//DTD SVG 20010904//EN"
 "http://www.w3.org/TR/2001/REC-SVG-20010904/DTD/svg10.dtd">
<svg version="1.0" xmlns="http://www.w3.org/2000/svg"
 width="175.000000pt" height="150.000000pt" viewBox="0 0 175.000000 150.000000"
 preserveAspectRatio="xMidYMid meet">

<g transform="translate(0.000000,150.000000) scale(0.100000,-0.100000)"
fill="#E4682B" stroke="none">
<path d="M364 1172 l-300 -287 514 -3 514 -2 207 197 c113 109 248 240 301
290 l95 92 -515 0 -515 0 -301 -287z"/>
<path d="M50 430 c0 -263 3 -390 10 -390 6 0 28 9 50 20 50 25 85 25 135 0 50
-25 81 -25 128 0 47 25 82 25 132 0 50 -25 81 -25 128 0 47 25 87 25 134 0 47
-25 79 -25 126 0 20 11 50 20 67 20 17 0 47 -9 67 -20 21 -11 43 -20 50 -20
10 0 13 82 13 390 l0 390 -520 0 -520 0 0 -390z"/>
</g>
</svg>
